# Mark-LV Canonical Face Mesh
v -0.020092 -0.467063 0.297674
v -0.104932 -0.159468 0.610579
v -0.055112 -0.258068 0.328810
v -0.204180 0.229846 0.445023
v -0.119726 -0.038139 0.648977
v -0.123656 0.124361 0.605103
v -0.112260 0.507444 0.307642
v -0.781133 0.458984 -0.263397
v -0.123891 0.769082 0.228282
v -0.140703 0.918480 0.247997
v -0.172410 1.462369 0.136781
v -0.009855 -0.516972 0.281459
v 0.001597 -0.546461 0.249055
v 0.011724 -0.549000 0.203308
v 0.023718 -0.672625 0.178129
v 0.023498 -0.712691 0.199318
v 0.027153 -0.765147 0.228825
v 0.035386 -0.829436 0.222262
v 0.058303 -0.953292 0.134988
v -0.089154 -0.219737 0.553806
v -0.181101 -0.209485 0.389727
v -1.114936 0.802778 -0.844061
v -0.476631 0.409556 -0.113345
v -0.579844 0.390139 -0.135309
v -0.680170 0.381599 -0.178517
v -0.814773 0.413673 -0.288743
v -0.394757 0.443223 -0.105251
v -0.653521 0.619713 -0.084503
v -0.547133 0.629617 -0.068305
v -0.747809 0.593643 -0.135252
v -0.805996 0.553962 -0.190984
v -0.892100 0.334432 -0.354030
v -0.321089 -1.172679 -0.079614
v -0.817459 0.470513 -0.304590
v -1.132569 0.326943 -0.898541
v -0.997273 0.381961 -0.480929
v -0.586954 -0.057662 -0.001071
v -0.178617 -0.460566 0.261821
v -0.138211 -0.552443 0.207453
v -0.325836 -0.486527 0.163948
v -0.406632 -0.519002 0.042790
v -0.247873 -0.554626 0.130475
v -0.324446 -0.562262 0.021447
v -0.475563 -0.714574 -0.162839
v -0.197181 -0.164347 0.590121
v -0.221641 -0.047318 0.622806
v -0.975134 0.650366 -0.241706
v -0.376712 0.236215 0.040745
v -0.430455 -0.119002 0.276512
v -0.431128 -0.053339 0.240018
v -0.890745 -0.064553 -0.197727
v -0.216732 0.102956 0.553990
v -0.778723 0.792064 -0.001597
v -0.901851 0.738783 -0.113254
v -1.060449 1.011529 -0.605646
v -0.337219 0.762871 0.161056
v -0.447012 0.616542 -0.087760
v -0.579068 -0.597757 -0.197923
v -0.924619 -0.720645 -1.180651
v -0.344522 -0.175901 0.245299
v -0.248397 -0.209689 0.278324
v -0.488932 -0.582566 -0.190368
v -0.433008 -0.581075 -0.155469
v -0.959188 0.805872 -0.176995
v -0.425856 -0.157218 0.215193
v -0.597442 0.808337 0.092239
v -0.631327 0.899739 0.114237
v -0.742300 1.323831 -0.105353
v -1.011815 0.913466 -0.364723
v -0.682208 1.123222 0.009987
v -1.030948 0.691946 -0.347558
v -1.074174 0.741089 -0.583020
v -0.161468 -0.518658 0.243673
v -0.283163 -0.530377 0.148890
v -0.365580 -0.541603 0.039716
v -0.315134 -0.191270 0.232334
v -0.462663 -0.580957 -0.170767
v -0.404584 -0.634046 -0.092684
v -0.411536 -0.581726 -0.149109
v -0.297927 -0.158631 0.405940
v -0.297801 -0.549781 0.009227
v -0.218948 -0.549365 0.091167
v -0.115233 -0.553607 0.161291
v -0.102903 -0.957058 0.099542
v -0.116764 -0.827446 0.179896
v -0.119273 -0.761151 0.184284
v -0.115449 -0.709046 0.152477
v -0.105375 -0.674129 0.132941
v -0.296691 -0.642869 -0.013821
v -0.314702 -0.654738 0.004164
v -0.336130 -0.681746 0.018654
v -0.351275 -0.719981 -0.005344
v -0.499942 -0.428941 0.008273
v -1.051893 -0.173782 -1.353295
v -0.073933 -0.238716 0.407973
v -0.347695 -0.623811 -0.097836
v -0.378361 -0.623688 -0.088346
v -0.202926 -0.260264 0.281046
v -0.379310 -0.215753 0.142050
v -0.225123 -0.236940 0.283472
v -0.481399 0.167542 -0.014477
v -0.651757 0.083662 -0.068291
v -0.440676 -0.096850 0.174067
v -0.949316 1.188263 -0.346136
v -0.891657 1.044987 -0.171183
v -0.825362 0.879854 -0.028435
v -0.379690 -0.813687 -0.082540
v -0.393510 0.906263 0.202272
v -0.445419 1.164216 0.129546
v -0.491906 1.408113 0.059790
v -0.765776 0.387966 -0.237476
v -0.994747 0.245954 -0.432968
v -0.346779 0.475317 -0.111706
v -0.908601 0.516863 -0.304891
v -0.311346 0.310741 0.094693
v -0.372784 -0.088679 0.396682
v -1.088210 0.151571 -0.577147
v -0.932825 0.190933 -0.324267
v -0.810577 0.172768 -0.204167
v -0.618215 0.205822 -0.121174
v -0.472017 0.260988 -0.074943
v -0.369051 0.319966 -0.024873
v -0.202459 0.466538 0.244433
v -1.087145 -0.068117 -0.548398
v -0.989318 0.524668 -0.369929
v -0.145768 -0.218008 0.538825
v -0.379526 0.124522 0.092098
v -1.113573 0.324327 -1.270771
v -0.298357 0.383859 0.006981
v -0.439993 -0.097993 0.058243
v -0.846725 0.458859 -0.332237
v -0.371801 -0.007421 0.353040
v -1.008957 -0.442549 -1.295317
v -0.351912 0.511809 -0.141485
v -0.296471 0.057338 0.473864
v -0.762513 -0.938654 -0.573601
v -0.699692 -1.091287 -0.759698
v -1.124786 -0.139242 -0.959074
v -0.899643 -0.807093 -0.723309
v -1.104859 0.550061 -0.773461
v -0.320819 -1.310742 -0.142007
v -0.120144 -0.237021 0.395789
v -0.465752 0.041460 0.039399
v -1.069431 0.347453 -0.608920
v -0.677635 0.449521 -0.185269
v -0.585386 0.452686 -0.146908
v -0.426335 -0.652235 -0.115437
v -1.063954 -0.296784 -0.582318
v -0.100296 -1.470268 -0.127765
v -0.412764 -1.330483 -0.417999
v -0.542907 -1.229553 -0.574277
v -0.159917 1.196971 0.198282
v 0.133211 -1.476141 -0.056143
v -0.499086 0.468095 -0.127634
v -0.419694 0.491218 -0.130984
v -0.372573 0.503966 -0.144618
v -1.051225 0.537786 -0.494286
v -0.446034 0.553648 -0.114225
v -0.537001 0.558641 -0.104746
v -0.625202 0.551569 -0.123356
v -0.710087 0.527418 -0.163320
v -0.763689 0.500211 -0.207236
v -1.133217 0.588632 -1.084826
v -0.738859 0.452896 -0.227847
v -0.039248 -0.323687 0.292999
v -0.412755 -0.366982 0.109783
v -0.351571 -0.166426 0.290800
v -0.202286 -0.336622 0.257417
v -0.110128 0.642125 0.225520
v -0.606144 -1.077857 -0.445603
v -0.466098 -1.195472 -0.301493
v -0.129585 -1.378814 0.005739
v -0.818185 -0.937654 -0.980943
v -0.382394 0.532050 -0.131502
v -0.265013 0.278144 0.264299
v 0.107084 -1.382197 0.069777
v -0.273918 -1.417043 -0.254262
v -1.081681 -0.387173 -0.936239
v -0.213032 -0.661380 0.063012
v -0.229967 -0.687102 0.081984
v -0.241970 -0.728555 0.098756
v -0.248100 -0.788304 0.084270
v -0.260869 -0.901429 0.010893
v -0.393405 -0.566851 -0.075242
v -0.431266 -0.558799 -0.082668
v -0.465919 -0.544475 -0.083714
v -0.567899 -0.502824 -0.105127
v -0.956278 -0.328077 -0.334044
v -0.253980 0.394472 0.161559
v -0.294302 0.592851 -0.041307
v -0.345956 0.566946 -0.100676
v -0.361743 -0.552278 -0.082009
v -0.917134 -0.614397 -0.509277
v -0.229167 0.607570 0.124116
v -0.290380 -1.029353 -0.035687
v -0.119416 0.256038 0.500449
v -0.205815 0.342020 0.357357
v -0.115887 0.377014 0.399768
v -0.331464 0.097557 0.255039
v 0.085598 -1.246721 0.129356
v 0.070212 -1.086655 0.132914
v -0.117506 -1.090875 0.077959
v -0.545175 -0.790461 -0.225316
v -0.508928 -0.191972 0.009586
v -0.423436 -0.926256 -0.139718
v -0.751986 -0.201321 -0.072027
v -0.596709 -0.307982 -0.043994
v -0.820820 -0.387172 -0.192044
v -0.135491 -1.247736 0.062783
v -0.384964 0.036996 0.163817
v -0.607339 -0.915712 -0.326913
v -0.460866 -1.050745 -0.216696
v -0.658184 -0.646187 -0.247764
v -1.015080 -0.493586 -0.618719
v -0.776253 -0.707251 -0.359598
v -1.010450 -0.613612 -0.883987
v -0.668466 -0.441336 -0.128788
v -0.318088 0.201943 0.171113
v -0.336820 -0.141709 0.424987
v -0.397466 -0.156971 0.297173
v -0.304023 -0.066699 0.513205
v -0.389265 0.664869 -0.023945
v -0.563131 0.692935 -0.024466
v -0.703365 0.684392 -0.051656
v -0.814479 0.654422 -0.117991
v -0.882929 0.600037 -0.202521
v -0.911296 0.422399 -0.386013
v -1.140292 0.095387 -0.940234
v -0.837039 0.302331 -0.291669
v -0.733997 0.288403 -0.208978
v -0.597968 0.304210 -0.143677
v -0.468751 0.340629 -0.105713
v -0.372406 0.385603 -0.078783
v -0.311223 0.426774 -0.060079
v -1.077177 0.076716 -1.352336
v -0.387414 -0.176351 0.242526
v -0.272930 0.171751 0.353163
v -0.268029 -0.151228 0.524799
v -0.195097 -0.198972 0.489532
v -0.259465 -0.165657 0.470221
v -0.353105 -0.202976 0.210843
v -0.178687 -0.211408 0.521021
v -0.155933 -0.228411 0.392253
v -0.317812 0.508668 -0.113719
v -0.267483 0.489649 -0.033632
v -0.249439 0.472820 0.055157
v -0.794797 0.482079 -0.250413
v -0.849810 0.512823 -0.263653
v -0.021368 0.250031 0.479488
v 0.724186 0.633748 -0.016349
v 0.043539 -0.190384 0.416769
v 1.199494 1.093657 -0.460725
v 0.401054 0.511556 0.047144
v 0.514320 0.515963 0.056274
v 0.626641 0.531415 0.044126
v 0.784723 0.598738 -0.026011
v 0.305969 0.525022 0.019607
v 0.528201 0.772063 0.115354
v 0.414962 0.754407 0.089626
v 0.640961 0.769556 0.096178
v 0.722694 0.743419 0.059363
v 0.895733 0.539865 -0.070516
v 0.540460 -1.105012 0.040375
v 0.769741 0.657788 -0.045931
v 1.310365 0.610090 -0.510004
v 1.033895 0.619793 -0.162922
v 0.555141 0.064272 0.165576
v 0.151996 -0.429837 0.310192
v 0.162250 -0.524238 0.252703
v 0.344413 -0.425921 0.261709
v 0.475592 -0.437299 0.174697
v 0.302009 -0.505246 0.217853
v 0.414761 -0.492668 0.137543
v 0.645333 -0.610353 0.002410
v -0.005209 -0.145697 0.611515
v -0.007924 -0.024320 0.648237
v 0.902852 0.890845 0.055245
v 0.277280 0.309231 0.149676
v 0.319456 -0.041227 0.378422
v 0.322172 0.025981 0.345300
v 0.924808 0.130228 0.073454
v -0.017884 0.124751 0.587966
v 0.592569 0.983470 0.197877
v 0.766549 0.961260 0.139138
v 1.031114 1.285436 -0.262810
v 0.103293 0.826276 0.224543
v 0.318082 0.713896 0.040504
v 0.737159 -0.472053 -0.001887
v 1.403003 -0.500297 -0.822840
v 0.247827 -0.117943 0.322659
v 0.147908 -0.171466 0.316809
v 0.635958 -0.474935 -0.017720
v 0.584564 -0.481877 -0.000127
v 0.834141 1.047800 0.094825
v 0.345146 -0.078653 0.315791
v 0.372188 0.946245 0.228625
v 0.382313 1.046932 0.255418
v 0.483001 1.493199 0.086815
v 0.926836 1.169764 -0.061989
v 0.416513 1.278090 0.174960
v 0.982641 0.950577 -0.027971
v 1.089519 1.014208 -0.235996
v 0.159723 -0.489066 0.292300
v 0.319655 -0.476176 0.242903
v 0.443619 -0.466825 0.164116
v 0.224837 -0.139036 0.293333
v 0.610345 -0.477402 -0.009432
v 0.540891 -0.543613 0.046926
v 0.570501 -0.485352 0.001801
v 0.152797 -0.116253 0.474498
v 0.399688 -0.481681 0.118546
v 0.287831 -0.502238 0.173700
v 0.159333 -0.527045 0.208845
v 0.234090 -0.927896 0.144927
v 0.201883 -0.798834 0.231696
v 0.187303 -0.734410 0.238576
v 0.177309 -0.684138 0.205783
v 0.167962 -0.650764 0.183735
v 0.412613 -0.576177 0.096535
v 0.429130 -0.584443 0.115733
v 0.452648 -0.607161 0.133021
v 0.476247 -0.641925 0.114618
v 0.548243 -0.325257 0.155114
v 1.450597 0.093208 -0.957476
v 0.487467 -0.543838 0.035991
v 0.512678 -0.537975 0.046577
v 0.109197 -0.230817 0.317774
v 0.324421 -0.144710 0.222710
v 0.127377 -0.203418 0.320546
v 0.409271 0.265978 0.129996
v 0.611809 0.221939 0.126273
v 0.360915 -0.013148 0.283439
v 0.800183 1.424981 -0.068847
v 0.712901 1.265784 0.071109
v 0.628775 1.084532 0.184591
v 0.542398 -0.730596 0.054437
v 0.119130 0.982785 0.269253
v 0.138600 1.245013 0.214108
v 0.171220 1.500000 0.155909
v 0.726538 0.558821 0.011076
v 1.041236 0.476668 -0.117429
v 0.246830 0.543865 -0.000644
v 0.867918 0.733150 -0.019107
v 0.181986 0.366495 0.180712
v 0.217387 -0.028459 0.478841
v 1.199797 0.406471 -0.220496
v 0.954326 0.402537 -0.027578
v 0.797314 0.352370 0.051053
v 0.570024 0.338434 0.072623
v 0.400728 0.358741 0.072505
v 0.275409 0.392584 0.086425
v -0.000902 0.490650 0.280419
v 1.226048 0.180605 -0.192573
v 0.974848 0.765244 -0.055069
v -0.028325 -0.207550 0.555892
v 0.279262 0.196512 0.198010
v 1.391040 0.615565 -0.860216
v 0.179144 0.438859 0.090818
v 0.385804 -0.011232 0.166660
v 0.813839 0.655451 -0.061189
v 0.221795 0.055323 0.436884
v 1.455480 -0.194948 -0.915674
v 0.252464 0.581774 -0.026084
v 0.098112 0.099972 0.533654
v 1.104312 -0.778158 -0.307395
v 1.135262 -0.941339 -0.488566
v 1.395158 0.128908 -0.570769
v 1.263351 -0.608482 -0.408938
v 1.201847 0.829644 -0.400803
v 0.582007 -1.243726 -0.013859
v -0.025817 -0.227949 0.406489
v 0.400605 0.135092 0.169475
v 1.154715 0.605550 -0.257593
v 0.602212 0.596697 0.030877
v 0.503153 0.579460 0.044755
v 0.569937 -0.557628 0.032319
v 1.262567 -0.057384 -0.235855
v 0.379875 -1.437834 -0.055583
v 0.762755 -1.245771 -0.241634
v 0.935540 -1.118674 -0.353623
v 0.411125 0.574994 0.035129
v 0.326117 0.579619 0.008284
v 0.275567 0.579193 -0.020319
v 1.075169 0.797826 -0.153305
v 0.344265 0.648676 0.028590
v 0.439532 0.677639 0.063536
v 0.528377 0.690826 0.073459
v 0.623157 0.688009 0.059503
v 0.690597 0.674101 0.031030
v 1.312338 0.884681 -0.683582
v 0.672548 0.615441 0.007971
v 0.409252 -0.286300 0.221403
v 0.240181 -0.108376 0.363093
v 0.140780 -0.303413 0.304282
v 0.926998 -0.954061 -0.228838
v 0.761554 -1.102654 -0.128969
v 0.360135 -1.343540 0.075935
v 1.286209 -0.750310 -0.659943
v 0.279128 0.608796 -0.003354
v 0.086005 0.317814 0.321903
v 0.581597 -1.356411 -0.123380
v 1.407090 -0.135010 -0.563423
v 0.298957 -0.615827 0.149508
v 0.315880 -0.637729 0.170834
v 0.332566 -0.675965 0.191753
v 0.351263 -0.732684 0.179339
v 0.408295 -0.842291 0.113670
v 0.521563 -0.478664 0.066057
v 0.551168 -0.465546 0.069686
v 0.581101 -0.445257 0.075303
v 0.671959 -0.380996 0.076928
v 1.091565 -0.118369 -0.037433
v 0.087045 0.434042 0.222131
v 0.145903 0.648522 0.034590
v 0.223543 0.636446 0.006421
v 0.497515 -0.468041 0.053449
v 1.170158 -0.412889 -0.211627
v 0.038112 0.642091 0.168796
v 0.477047 -0.966056 0.072198
v -0.009199 0.364712 0.387622
v 0.188818 0.154410 0.332235
v 0.277291 -1.059000 0.129345
v 0.746980 -0.674350 -0.039404
v 0.496567 -0.087668 0.148950
v 0.625602 -0.836987 0.008138
v 0.777783 -0.041840 0.141586
v 0.634509 -0.183094 0.128176
v 0.926845 -0.210805 0.052799
v 0.326337 -1.211706 0.128431
v 0.282925 0.109172 0.261811
v 0.859360 -0.789842 -0.118098
v 0.703694 -0.956988 -0.056143
v 0.837689 -0.504441 -0.023767
v 1.274301 -0.266595 -0.285475
v 1.004387 -0.542056 -0.105805
v 1.374380 -0.381996 -0.527873
v 0.772813 -0.296794 0.079080
v 0.180287 0.257176 0.254404
v 0.185474 -0.090856 0.499493
v 0.288338 -0.088679 0.384334
v 0.107910 -0.026053 0.573246
v 0.222460 0.744071 0.080183
v 0.393250 0.820104 0.123648
v 0.546717 0.850385 0.141938
v 0.686454 0.847579 0.118789
v 0.795614 0.811313 0.063291
v 0.909105 0.636925 -0.096074
v 1.364617 0.373328 -0.543436
v 0.826419 0.491550 -0.024161
v 0.702458 0.451241 0.023903
v 0.545767 0.433756 0.047607
v 0.398172 0.439890 0.045646
v 0.285668 0.460886 0.034387
v 0.207156 0.486596 0.032108
v 1.423435 0.356737 -0.944577
v 0.298983 -0.108250 0.327583
v 0.082724 0.211332 0.413068
v 0.085496 -0.117359 0.571112
v 0.037754 -0.178720 0.516643
v 0.098232 -0.133420 0.518492
v 0.277854 -0.141070 0.282947
v 0.011892 -0.194460 0.543326
v 0.015692 -0.213520 0.411350
v 0.208199 0.570666 -0.017141
v 0.142602 0.538567 0.038569
v 0.102425 0.514971 0.113865
v 0.733663 0.663371 -0.001468
v 0.793555 0.713227 0.001242
f 19 18
f 83 39
f 9 10
f 457 249
f 168 3
f 304 272
f 70 105
f 254 451
f 42 43
f 316 17
f 74 75
f 340 374
f 259 386
f 106 64
f 220 49
f 305 273
f 237 218
f 232 23
f 86 85
f 366 368
f 238 219
f 244 113
f 437 428
f 410 411
f 249 457
f 331 267
f 137 136
f 89 96
f 395 431
f 108 109
f 119 118
f 440 439
f 443 444
f 261 467
f 116 49
f 343 277
f 122 129
f 201 422
f 114 125
f 133 138
f 24 231
f 344 358
f 444 445
f 63 79
f 27 156
f 229 111
f 433 435
f 365 380
f 326 309
f 425 431
f 37 206
f 364 421
f 22 163
f 329 463
f 420 352
f 367 346
f 194 9
f 364 457
f 184 81
f 308 376
f 95 3
f 334 285
f 18 314
f 186 41
f 45 2
f 292 288
f 412 353
f 21 239
f 60 167
f 273 311
f 421 438
f 388 261
f 131 227
f 52 46
f 176 378
f 203 215
f 354 384
f 340 449
f 292 409
f 467 261
f 265 455
f 458 441
f 356 430
f 97 90
f 129 122
f 188 208
f 361 279
f 307 308
f 447 468
f 166 40
f 338 152
f 169 194
f 74 42
f 319 404
f 264 468
f 284 446
f 75 43
f 202 84
f 66 223
f 38 12
f 430 356
f 273 409
f 180 181
f 101 37
f 159 158
f 439 441
f 359 332
f 282 457
f 137 139
f 315 405
f 418 9
f 35 128
f 368 417
f 181 182
f 427 323
f 420 198
f 458 310
f 216 139
f 243 242
f 34 248
f 54 226
f 127 210
f 468 360
f 225 224
f 272 305
f 98 3
f 184 192
f 203 205
f 96 79
f 247 248
f 178 148
f 358 344
f 66 56
f 117 138
f 136 151
f 383 257
f 200 172
f 299 294
f 17 316
f 205 107
f 150 171
f 151 136
f 404 316
f 62 58
f 206 188
f 45 5
f 359 430
f 278 356
f 439 310
f 43 81
f 237 175
f 129 233
f 303 269
f 314 315
f 241 65
f 292 376
f 261 388
f 114 226
f 108 66
f 248 226
f 347 348
f 45 126
f 379 380
f 467 264
f 251 460
f 51 206
f 112 36
f 77 78
f 123 194
f 210 199
f 202 195
f 409 408
f 286 337
f 3 394
f 244 191
f 337 10
f 235 228
f 294 277
f 222 29
f 58 186
f 218 175
f 132 135
f 345 279
f 344 400
f 29 159
f 129 246
f 464 465
f 444 258
f 395 365
f 165 168
f 11 110
f 197 237
f 430 359
f 175 218
f 453 342
f 3 371
f 85 181
f 321 308
f 1 38
f 251 329
f 102 120
f 42 75
f 400 457
f 14 13
f 219 116
f 344 413
f 17 18
f 56 9
f 108 56
f 154 23
f 441 345
f 394 270
f 365 435
f 39 42
f 297 337
f 69 64
f 403 318
f 457 438
f 254 375
f 255 340
f 68 105
f 393 310
f 146 24
f 64 71
f 404 319
f 128 235
f 416 293
f 55 22
f 169 7
f 73 39
f 205 195
f 84 85
f 283 294
f 303 272
f 121 232
f 435 428
f 321 406
f 427 424
f 442 287
f 146 145
f 342 465
f 209 201
f 251 463
f 113 233
f 259 287
f 419 425
f 161 160
f 287 385
f 422 201
f 275 2
f 201 202
f 167 60
f 112 124
f 212 211
f 331 348
f 423 431
f 215 136
f 281 347
f 108 10
f 266 447
f 245 244
f 418 352
f 111 164
f 451 349
f 397 378
f 246 245
f 84 183
f 9 418
f 452 350
f 204 99
f 377 436
f 102 51
f 346 448
f 413 358
f 239 242
f 91 78
f 370 396
f 277 354
f 254 450
f 360 468
f 280 359
f 316 16
f 434 417
f 300 337
f 47 157
f 168 38
f 461 291
f 312 311
f 411 433
f 358 278
f 36 227
f 305 272
f 190 56
f 315 316
f 109 68
f 2 5
f 5 276
f 206 37
f 157 144
f 437 427
f 224 54
f 462 371
f 24 145
f 30 225
f 245 113
f 349 350
f 341 346
f 123 7
f 402 362
f 229 25
f 253 382
f 38 165
f 193 188
f 178 59
f 411 410
f 317 403
f 382 383
f 430 280
f 141 177
f 27 155
f 435 395
f 53 64
f 80 167
f 73 42
f 72 163
f 245 234
f 223 66
f 215 211
f 355 371
f 141 33
f 31 161
f 213 58
f 445 444
f 8 34
f 302 252
f 214 139
f 171 177
f 18 84
f 269 303
f 33 212
f 332 359
f 187 41
f 106 53
f 458 355
f 396 380
f 376 322
f 326 321
f 318 317
f 275 355
f 97 89
f 16 15
f 468 261
f 233 129
f 405 321
f 351 350
f 343 266
f 75 186
f 315 18
f 147 62
f 248 114
f 406 322
f 257 342
f 284 445
f 410 292
f 75 42
f 79 192
f 246 189
f 104 105
f 20 371
f 20 142
f 281 412
f 221 132
f 86 87
f 373 266
f 238 221
f 205 44
f 119 120
f 211 203
f 291 461
f 451 450
f 84 19
f 198 4
f 316 405
f 462 459
f 170 171
f 247 162
f 33 202
f 237 197
f 410 305
f 296 283
f 396 370
f 182 181
f 354 373
f 140 35
f 433 437
f 371 462
f 185 43
f 97 79
f 114 248
f 327 392
f 148 124
f 127 101
f 206 102
f 453 351
f 72 22
f 17 86
f 298 334
f 137 151
f 261 446
f 35 140
f 47 114
f 18 316
f 105 55
f 384 373
f 418 286
f 151 171
f 21 61
f 40 74
f 46 5
f 439 345
f 38 1
f 178 124
f 337 297
f 103 130
f 135 199
f 176 200
f 303 304
f 294 335
f 88 87
f 100 241
f 241 100
f 365 395
f 65 103
f 257 453
f 338 298
f 384 265
f 142 243
f 189 175
f 121 120
f 208 188
f 468 264
f 31 226
f 132 49
f 426 267
f 122 121
f 86 18
f 29 158
f 338 10
f 343 354
f 155 154
f 362 367
f 228 138
f 53 106
f 119 51
f 218 210
f 425 423
f 250 391
f 197 7
f 27 233
f 288 274
f 211 170
f 351 330
f 63 192
f 277 301
f 249 282
f 369 384
f 428 433
f 454 342
f 373 354
f 358 454
f 102 119
f 322 308
f 408 311
f 267 372
f 421 430
f 307 408
f 254 253
f 225 226
f 113 134
f 357 265
f 371 20
f 255 254
f 220 116
f 226 47
f 125 144
f 290 440
f 14 313
f 254 374
f 155 23
f 320 319
f 364 282
f 170 151
f 356 278
f 355 462
f 268 165
f 321 320
f 40 41
f 278 358
f 64 106
f 190 245
f 35 228
f 121 231
f 294 302
f 61 100
f 73 74
f 284 294
f 308 322
f 322 406
f 94 133
f 184 63
f 409 410
f 152 339
f 187 217
f 152 110
f 246 123
f 190 222
f 336 425
f 443 259
f 442 443
f 115 48
f 174 134
f 453 452
f 107 44
f 306 290
f 363 415
f 444 260
f 295 280
f 259 443
f 58 44
f 257 253
f 260 444
f 47 71
f 421 361
f 127 143
f 372 356
f 113 245
f 432 370
f 48 115
f 101 127
f 13 14
f 92 78
f 24 23
f 52 5
f 49 116
f 255 450
f 161 28
f 354 343
f 435 417
f 267 424
f 5 275
f 317 16
f 5 46
f 25 24
f 81 184
f 342 454
f 110 68
f 175 197
f 67 106
f 90 89
f 30 224
f 165 3
f 463 371
f 329 291
f 401 396
f 182 92
f 253 381
f 25 145
f 314 19
f 355 20
f 186 62
f 91 90
f 117 228
f 169 418
f 330 372
f 157 35
f 451 253
f 9 286
f 165 268
f 169 9
f 154 146
f 362 324
f 286 414
f 347 281
f 118 229
f 131 248
f 141 212
f 427 426
f 54 64
f 246 234
f 3 98
f 217 207
f 196 4
f 460 459
f 179 180
f 277 343
f 236 76
f 400 413
f 186 75
f 171 212
f 466 358
f 223 222
f 76 60
f 230 118
f 423 433
f 328 424
f 276 5
f 13 269
f 268 1
f 65 50
f 245 246
f 116 132
f 377 402
f 172 33
f 162 248
f 27 23
f 455 357
f 167 219
f 421 364
f 234 129
f 194 56
f 279 280
f 406 321
f 335 297
f 280 361
f 202 33
f 221 46
f 316 18
f 355 275
f 168 40
f 52 237
f 4 197
f 109 70
f 129 48
f 267 427
f 100 21
f 260 388
f 138 133
f 274 322
f 395 432
f 286 296
f 438 430
f 84 18
f 316 404
f 450 255
f 462 458
f 261 468
f 360 447
f 185 186
f 412 377
f 264 250
f 463 459
f 216 173
f 53 66
f 248 162
f 192 81
f 425 432
f 37 207
f 263 370
f 297 283
f 397 370
f 135 221
f 336 274
f 215 213
f 194 190
f 365 417
f 271 410
f 445 446
f 230 229
f 331 281
f 457 420
f 261 445
f 189 197
f 407 419
f 31 248
f 399 415
f 18 315
f 211 215
f 18 86
f 424 359
f 64 53
f 20 275
f 273 312
f 51 119
f 15 16
f 181 85
f 6 196
f 241 99
f 440 345
f 257 452
f 124 188
f 16 17
f 97 91
f 142 242
f 7 197
f 361 280
f 348 347
f 199 218
f 319 320
f 359 356
f 419 407
f 116 220
f 191 134
f 78 77
f 111 25
f 49 50
f 81 82
f 334 299
f 354 277
f 142 98
f 374 255
f 70 109
f 419 263
f 464 414
f 295 456
f 22 69
f 82 83
f 119 230
f 285 299
f 372 267
f 385 386
f 232 27
f 396 395
f 323 411
f 249 196
f 362 402
f 215 203
f 120 231
f 112 227
f 44 92
f 384 277
f 169 352
f 450 451
f 315 406
f 56 66
f 183 107
f 395 435
f 394 327
f 211 205
f 212 170
f 451 452
f 204 166
f 23 154
f 144 35
f 410 271
f 8 111
f 449 262
f 214 216
f 372 424
f 65 236
f 10 337
f 279 345
f 90 180
f 237 199
f 337 286
f 182 183
f 195 202
f 67 53
f 152 11
f 124 178
f 342 257
f 456 279
f 327 394
f 258 443
f 270 268
f 204 143
f 239 21
f 269 272
f 255 374
f 415 363
f 306 456
f 358 466
f 190 244
f 43 82
f 287 442
f 180 87
f 218 199
f 85 84
f 457 364
f 215 193
f 327 371
f 108 67
f 248 227
f 89 90
f 28 223
f 121 122
f 100 99
f 280 295
f 152 109
f 76 236
f 151 150
f 389 467
f 130 127
f 448 373
f 367 448
f 71 157
f 57 222
f 172 209
f 191 222
f 29 160
f 436 398
f 55 69
f 369 265
f 215 170
f 295 279
f 222 66
f 207 166
f 30 161
f 282 196
f 34 131
f 448 265
f 299 285
f 279 456
f 202 209
f 428 435
f 361 345
f 322 274
f 380 395
f 266 373
f 275 458
f 102 121
f 183 195
f 228 117
f 254 255
f 353 377
f 5 45
f 352 418
f 351 453
f 284 283
f 195 205
f 56 10
f 107 92
f 411 323
f 49 236
f 317 316
f 368 398
f 428 412
f 320 321
f 194 245
f 399 385
f 332 295
f 314 18
f 298 339
f 165 38
f 404 320
f 350 349
f 48 127
f 9 56
f 148 214
f 321 322
f 228 94
f 135 132
f 45 238
f 394 392
f 440 279
f 452 253
f 121 233
f 288 410
f 222 56
f 386 387
f 348 281
f 58 213
f 59 178
f 258 387
f 217 206
f 209 202
f 387 388
f 460 458
f 138 178
f 392 323
f 50 65
f 56 108
f 309 325
f 373 346
f 12 38
f 432 395
f 172 176
f 331 349
f 157 47
f 12 303
f 281 348
f 453 454
f 353 367
f 13 39
f 65 49
f 23 232
f 415 464
f 449 340
f 423 288
f 60 236
f 14 269
f 299 252
f 238 242
f 69 55
f 121 102
f 93 40
f 44 147
f 378 401
f 239 243
f 92 44
f 370 397
f 302 299
f 287 399
f 347 450
f 221 45
f 300 338
f 359 424
f 132 116
f 4 196
f 24 25
f 417 365
f 124 112
f 161 30
f 327 328
f 267 426
f 346 341
f 54 53
f 99 204
f 412 435
f 359 280
f 4 52
f 262 347
f 368 365
f 67 108
f 87 86
f 446 284
f 25 111
f 24 146
f 90 91
f 450 254
f 341 347
f 236 65
f 68 109
f 229 26
f 120 119
f 251 310
f 91 92
f 270 323
f 265 357
f 85 18
f 317 404
f 408 293
f 427 392
f 400 438
f 213 203
f 176 172
f 118 51
f 375 381
f 166 207
f 206 51
f 186 185
f 31 162
f 446 261
f 185 77
f 196 6
f 187 186
f 447 262
f 358 413
f 393 291
f 226 114
f 18 85
f 190 191
f 385 287
f 330 351
f 430 438
f 242 238
f 20 45
f 166 99
f 220 219
f 5 2
f 51 118
f 223 224
f 423 435
f 176 149
f 199 132
f 205 212
f 69 22
f 382 253
f 463 327
f 61 167
f 175 189
f 415 287
f 340 256
f 116 219
f 412 281
f 182 84
f 402 353
f 334 298
f 47 125
f 374 254
f 72 69
f 425 336
f 77 147
f 50 130
f 70 108
f 336 407
f 149 172
f 461 295
f 193 215
f 447 360
f 392 424
f 106 67
f 411 437
f 111 145
f 250 340
f 164 8
f 274 288
f 46 52
f 226 248
f 374 375
f 39 13
f 264 360
f 174 57
f 160 159
f 462 460
f 112 118
f 212 205
f 226 225
f 152 10
f 371 463
f 56 222
f 157 125
f 197 198
f 48 218
f 286 10
f 209 172
f 281 426
f 165 394
f 259 258
f 230 231
f 390 369
f 140 157
f 354 266
f 413 352
f 219 221
f 305 410
f 312 269
f 371 355
f 289 402
f 180 86
f 160 28
f 191 244
f 197 175
f 296 297
f 143 204
f 174 191
f 194 169
f 326 325
f 426 412
f 392 270
f 100 98
f 348 349
f 367 362
f 3 165
f 132 50
f 27 113
f 381 382
f 212 195
f 105 69
f 125 47
f 235 35
f 414 415
f 433 428
f 453 257
f 178 138
f 44 58
f 277 446
f 249 198
f 210 127
f 143 37
f 227 36
f 3 142
f 238 45
f 436 289
f 130 103
f 274 376
f 167 21
f 426 281
f 78 92
f 462 463
f 307 409
f 248 131
f 207 93
f 194 123
f 201 19
f 158 57
f 353 412
f 47 226
f 346 373
f 265 448
f 437 411
f 18 19
f 29 28
f 236 241
f 129 115
f 135 46
f 199 210
f 65 130
f 460 251
f 193 136
f 113 27
f 405 315
f 298 338
f 429 263
f 82 39
f 52 196
f 312 272
f 443 283
f 180 89
f 253 451
f 192 63
f 85 86
f 204 37
f 444 284
f 122 233
f 322 407
f 227 26
f 324 367
f 118 119
f 123 197
f 192 184
f 398 289
f 384 354
f 162 161
f 26 8
f 12 73
f 240 80
f 306 291
f 465 464
f 23 231
f 184 185
f 144 112
f 443 296
f 242 126
f 13 303
f 427 437
f 14 39
f 429 397
f 128 140
f 121 101
f 260 445
f 379 396
f 184 77
f 261 260
f 428 437
f 347 449
f 307 376
f 256 447
f 37 143
f 370 432
f 52 6
f 436 377
f 283 284
f 463 251
f 348 450
f 206 217
f 65 241
f 268 12
f 352 420
f 432 263
f 412 434
f 144 125
f 191 57
f 316 317
f 347 341
f 117 144
f 317 318
f 328 327
f 207 37
f 193 139
f 465 418
f 150 177
f 357 390
f 350 351
f 103 65
f 48 129
f 82 42
f 148 216
f 451 254
f 26 227
f 468 343
f 333 298
f 465 454
f 271 323
f 118 230
f 283 297
f 130 204
f 156 113
f 435 431
f 346 353
f 466 418
f 249 420
f 62 185
f 217 208
f 308 326
f 203 44
f 314 406
f 80 239
f 40 166
f 178 216
f 393 290
f 330 350
f 202 201
f 88 179
f 449 450
f 173 137
f 267 330
f 275 5
f 166 98
f 227 114
f 57 191
f 324 455
f 265 369
f 230 119
f 76 61
f 89 180
f 416 309
f 294 283
f 213 215
f 205 211
f 231 120
f 177 149
f 189 123
f 340 255
f 43 185
f 343 446
f 200 397
f 167 220
f 420 400
f 31 30
f 16 316
f 237 135
f 302 301
f 334 333
f 353 346
f 53 54
f 167 76
f 193 214
f 4 198
f 78 147
f 364 361
f 335 334
f 7 352
f 7 123
f 407 322
f 285 333
f 351 278
f 9 169
f 130 50
f 1 165
f 301 277
f 87 88
f 227 248
f 120 121
f 38 168
f 112 117
f 452 451
f 336 419
f 41 93
f 53 67
f 286 418
f 225 30
f 331 426
f 286 9
f 237 4
f 308 293
f 188 148
f 140 71
f 186 187
f 271 411
f 457 421
f 408 416
f 295 359
f 79 97
f 260 258
f 219 220
f 418 466
f 305 409
f 57 158
f 64 54
f 350 331
f 242 240
f 262 447
f 282 276
f 397 263
f 442 414
f 328 392
f 101 121
f 347 262
f 349 451
f 341 447
f 181 86
f 253 254
f 138 124
f 350 452
f 463 329
f 456 290
f 7 198
f 378 370
f 116 221
f 36 112
f 384 301
f 111 26
f 438 421
f 334 300
f 253 375
f 32 227
f 72 71
f 105 68
f 50 132
f 464 415
f 119 231
f 105 104
f 156 155
f 221 135
f 263 397
f 71 47
f 437 433
f 168 165
f 171 170
f 212 171
f 78 91
f 23 155
f 238 80
f 198 7
f 144 36
f 147 78
f 435 365
f 73 12
f 10 338
f 466 352
f 90 181
f 256 250
f 296 286
f 91 182
f 92 147
f 144 157
f 19 422
f 233 122
f 426 437
f 258 444
f 30 28
f 328 359
f 434 377
f 300 297
f 260 261
f 406 315
f 159 29
f 218 115
f 198 249
f 125 36
f 376 292
f 322 321
f 325 326
f 337 300
f 63 97
f 23 24
f 282 364
f 444 283
f 21 100
f 125 157
f 465 342
f 28 224
f 126 238
f 149 141
f 280 332
f 33 195
f 45 20
f 245 194
f 440 290
f 454 453
f 13 73
f 344 438
f 95 371
f 95 142
f 430 361
f 445 260
f 323 271
f 122 101
f 200 429
f 380 396
f 33 172
f 323 392
f 390 302
f 280 430
f 395 380
f 454 466
f 381 253
f 417 435
f 363 464
f 310 458
f 7 420
f 194 246
f 414 286
f 311 273
f 164 111
f 30 31
f 70 67
f 115 218
f 329 327
f 432 419
f 99 130
f 172 200
f 304 270
f 92 91
f 157 71
f 283 296
f 288 411
f 74 73
f 195 183
f 409 292
f 222 57
f 127 48
f 138 94
f 50 210
f 258 388
f 417 412
f 177 171
f 96 97
f 236 220
f 402 289
f 347 353
f 80 238
f 219 167
f 431 432
f 290 456
f 83 14
f 109 152
f 356 438
f 343 468
f 277 294
f 309 326
f 428 426
f 98 142
f 432 396
f 424 392
f 191 190
f 331 350
f 163 128
f 360 264
f 465 466
f 377 353
f 224 223
f 436 402
f 231 119
f 223 29
f 409 305
f 51 188
f 43 184
f 184 43
f 188 193
f 26 131
f 266 341
f 93 41
f 372 359
f 212 141
f 36 144
f 16 86
f 143 127
f 196 282
f 441 458
f 222 191
f 387 258
f 278 351
f 252 299
f 384 369
f 256 449
f 291 290
f 318 15
f 104 55
f 415 442
f 161 31
f 175 115
f 327 329
f 461 329
f 153 176
f 125 114
f 368 366
f 99 241
f 65 99
f 263 429
f 397 429
f 123 189
f 328 329
f 81 43
f 266 354
f 39 83
f 283 443
f 210 50
f 74 40
f 26 229
f 303 12
f 101 143
f 448 367
f 461 306
f 452 257
f 2 20
f 422 314
f 371 3
f 435 433
f 322 376
f 309 293
f 180 179
f 40 168
f 460 462
f 47 64
f 392 327
f 418 465
f 198 196
f 231 230
f 357 369
f 350 330
f 242 239
f 327 463
f 53 223
f 402 377
f 173 139
f 246 129
f 289 436
f 383 363
f 408 307
f 188 124
f 293 326
f 213 217
f 412 426
f 144 117
f 350 451
f 217 187
f 297 296
f 19 202
f 248 31
f 263 419
f 15 317
f 15 88
f 115 175
f 196 249
f 301 302
f 163 72
f 182 85
f 424 372
f 370 401
f 331 330
f 143 130
f 189 246
f 334 335
f 335 300
f 275 20
f 252 302
f 265 384
f 77 184
f 356 359
f 435 423
f 287 259
f 373 448
f 32 118
f 439 393
f 39 14
f 2 275
f 169 123
f 122 48
f 8 26
f 139 137
f 263 432
f 98 99
f 370 378
f 464 342
f 402 367
f 147 77
f 10 108
f 452 453
f 239 80
f 463 462
f 133 178
f 442 259
f 340 391
f 205 203
f 91 181
f 411 271
f 356 372
f 177 141
f 28 161
f 448 455
f 115 129
f 467 468
f 189 115
f 142 3
f 92 182
f 79 63
f 233 121
f 49 220
f 401 379
f 208 213
f 407 422
f 200 209
f 440 456
f 251 291
f 406 314
f 270 304
f 296 442
f 37 102
f 262 449
f 389 261
f 21 243
f 415 399
f 274 423
f 434 412
f 5 6
f 160 29
f 256 262
f 176 153
f 118 32
f 100 243
f 134 156
f 54 47
f 67 66
f 407 314
f 323 437
f 338 300
f 135 237
f 457 400
f 329 251
f 248 34
f 366 398
f 71 72
f 339 152
f 36 114
f 95 20
f 195 107
f 448 324
f 32 229
f 186 58
f 64 69
f 105 70
f 44 203
f 218 127
f 22 72
f 455 448
f 141 172
f 399 287
f 246 194
f 57 29
f 197 189
f 436 434
f 55 105
f 369 301
f 274 292
f 93 217
f 256 360
f 438 400
f 310 251
f 323 270
f 114 47
f 60 76
f 147 44
f 359 372
f 363 342
f 149 153
f 201 429
f 141 149
f 222 223
f 201 200
f 241 236
f 273 305
f 233 232
f 422 19
f 447 341
f 56 190
f 170 212
f 288 433
f 229 118
f 234 233
f 126 142
f 454 465
f 311 416
f 290 393
f 417 434
f 323 427
f 295 328
f 119 102
f 200 176
f 439 458
f 367 353
f 405 316
f 270 271
f 368 434
f 299 334
f 312 273
f 1 268
f 253 452
f 180 90
f 26 32
f 279 361
f 270 392
f 326 293
f 414 442
f 108 70
f 93 207
f 366 365
f 364 441
f 63 184
f 188 215
f 456 295
f 134 244
f 388 389
f 220 167
f 351 358
f 110 152
f 449 255
f 420 457
f 432 431
f 51 102
f 424 427
f 223 28
f 288 423
f 322 336
f 153 378
f 166 168
f 168 98
f 44 62
f 307 292
f 80 21
f 466 465
f 433 288
f 196 52
f 222 190
f 240 238
f 86 180
f 273 272
f 446 343
f 345 440
f 43 75
f 163 140
f 348 451
f 134 113
f 388 258
f 461 328
f 58 203
f 272 312
f 124 148
f 438 344
f 276 282
f 341 262
f 162 31
f 339 338
f 358 351
f 218 48
f 310 460
f 256 340
f 288 292
f 140 128
f 269 13
f 39 82
f 231 23
f 102 101
f 82 43
f 221 238
f 405 404
f 352 169
f 406 405
f 62 186
f 397 176
f 94 138
f 80 240
f 314 407
f 425 274
f 267 331
f 197 123
f 436 368
f 109 10
f 243 239
f 376 274
f 294 284
f 206 208
f 124 138
f 131 34
f 224 225
f 231 121
f 409 307
f 93 187
f 346 367
f 19 201
f 66 53
f 77 62
f 10 9
f 343 447
f 15 87
f 203 58
f 336 322
f 21 167
f 380 365
f 266 343
f 33 141
f 386 259
f 391 374
f 232 121
f 78 63
f 258 259
f 16 317
f 43 42
f 290 291
f 341 373
f 188 51
f 353 347
f 71 140
f 417 368
f 42 82
f 286 442
f 278 438
f 179 87
f 225 54
f 285 334
f 117 112
f 109 108
f 416 408
f 2 45
f 328 295
f 440 393
f 58 62
f 139 136
f 110 109
f 230 25
f 107 183
f 278 330
f 279 295
f 275 441
f 437 323
f 423 425
f 287 415
f 361 364
f 360 256
f 86 16
f 398 368
f 225 31
f 28 160
f 140 72
f 407 336
f 345 361
f 349 331
f 419 432
f 270 303
f 190 194
f 37 101
f 231 232
f 170 136
f 442 415
f 448 346
f 408 273
f 45 221
f 101 122
f 201 209
f 265 373
f 271 304
f 272 269
f 277 384
f 435 412
f 199 135
f 145 164
f 412 428
f 350 453
f 276 275
f 243 98
f 308 307
f 134 191
f 235 94
f 6 5
f 446 277
f 330 331
f 375 253
f 28 29
f 1 12
f 438 278
f 383 342
f 141 171
f 281 331
f 167 80
f 112 144
f 227 131
f 187 58
f 392 427
f 106 70
f 124 118
f 257 382
f 302 390
f 429 201
f 168 166
f 133 59
f 20 2
f 126 20
f 90 97
f 419 422
f 341 353
f 49 65
f 229 32
f 460 310
f 73 13
f 170 211
f 216 178
f 173 216
f 216 214
f 456 461
f 418 169
f 462 355
f 414 464
f 291 393
f 44 107
f 424 328
f 301 294
f 35 144
f 208 215
f 120 102
f 300 298
f 378 397
f 172 149
f 41 74
f 42 39
f 274 425
f 147 92
f 142 126
f 300 334
f 13 12
f 219 80
f 51 124
f 256 264
f 181 90
f 234 245
f 46 45
f 218 237
f 352 466
f 97 96
f 188 214
f 114 36
f 353 281
f 427 267
f 293 416
f 66 108
f 165 1
f 3 168
f 23 146
f 445 284
f 430 421
f 35 157
f 101 102
f 292 307
f 139 214
f 392 394
f 44 205
f 295 461
f 415 414
f 320 405
f 421 457
f 353 402
f 414 418
f 293 308
f 176 397
f 224 28
f 210 130
f 423 274
f 215 208
f 207 204
f 132 210
f 233 113
f 426 428
f 393 251
f 458 460
f 445 261
f 282 5
f 434 368
f 200 201
f 198 420
f 12 1
f 345 439
f 123 246
f 301 369
f 87 180
f 33 209
f 233 234
f 447 343
f 204 207
f 450 348
f 203 211
f 20 355
f 20 126
f 221 116
f 413 466
f 207 217
f 155 27
f 453 358
f 71 64
f 171 151
f 136 193
f 70 68
f 422 407
f 368 436
f 329 328
f 334 294
f 140 163
f 306 461
f 98 166
f 394 165
f 304 271
f 269 313
f 342 383
f 422 263
f 441 276
f 26 34
f 259 385
f 333 334
f 365 366
f 270 394
f 223 53
f 438 356
f 97 63
f 7 169
f 441 361
f 59 216
f 398 436
f 466 454
f 359 328
f 418 414
f 136 170
f 126 242
f 327 3
f 292 274
f 50 103
f 76 241
f 62 77
f 373 384
f 206 207
f 185 184
f 145 111
f 24 230
f 413 420
f 10 152
f 63 78
f 328 461
f 326 308
f 311 408
f 330 278
f 196 198
f 268 303
f 11 152
f 171 141
f 29 57
f 289 362
f 364 276
f 16 87
f 464 363
f 210 218
f 107 205
f 214 188
f 387 259
f 216 148
f 128 35
f 388 260
f 72 140
f 241 61
f 433 411
f 242 142
f 215 188
f 226 54
f 112 32
f 431 423
f 118 112
f 183 92
f 230 24
f 135 52
f 175 237
f 320 326
f 420 413
f 10 286
f 99 98
f 283 444
f 74 41
f 303 13
f 319 403
f 405 406
f 276 441
f 35 235
f 66 222
f 87 16
f 406 407
f 359 295
f 226 31
f 117 124
f 310 439
f 136 137
f 197 4
f 441 364
f 273 408
f 468 467
f 274 336
f 439 440
f 227 32
f 111 229
f 392 328
f 450 449
f 198 197
f 130 99
f 62 44
f 107 195
f 53 224
f 238 126
f 34 247
f 342 363
f 54 225
f 409 273
f 46 221
f 281 353
f 352 413
f 272 304
f 232 231
f 268 270
f 80 219
f 38 73
f 391 340
f 314 422
f 158 174
f 438 457
f 459 251
f 48 122
f 61 241
f 413 400
f 40 38
f 77 185
f 124 117
f 363 399
f 310 393
f 303 268
f 294 299
f 93 166
f 5 282
f 187 93
f 59 173
f 4 237
f 106 105
f 179 89
f 419 336
f 396 432
f 109 110
f 429 200
f 195 33
f 100 61
f 251 459
f 98 100
f 84 202
f 99 65
f 344 278
f 36 125
f 115 189
f 6 282
f 441 439
f 373 341
f 244 190
f 91 97
f 420 7
f 324 448
f 10 109
f 290 306
f 217 93
f 434 436
f 213 208
f 412 417
f 131 26
f 130 210
f 442 296
f 393 440
f 92 183
f 332 280
f 271 270
f 330 356
f 296 443
f 242 243
f 302 294
f 19 314
f 94 228
f 400 420
f 420 249
f 304 303
f 275 276
f 42 74
f 253 257
f 38 40
f 305 304
f 157 140
f 297 300
f 352 7
f 243 100
f 189 129
f 468 447
f 372 330
f 338 337
f 403 317
f 236 60
f 68 104
f 126 45
f 57 174
f 146 23
f 465 414
f 191 174
f 268 394
f 320 404
f 73 38
f 233 27
f 293 307
f 404 403
f 321 405
f 361 441
f 442 286
f 369 302
f 426 427
f 3 95
f 342 464
f 209 200
f 216 59
f 408 409
f 102 37
f 456 306
f 401 370
f 127 130
f 234 113
f 413 344
f 459 460
f 64 47
f 136 215
f 422 429
f 87 179
f 450 347
f 302 369
f 138 117
f 451 348
f 238 240
f 84 182
f 171 150
f 244 134
f 385 259
f 371 95
f 209 33
f 41 40
f 156 27
f 208 217
f 214 148
f 454 358
f 12 13
f 72 64
f 291 251
f 129 189
f 410 288
f 269 312
f 335 294
f 441 275
f 45 46
f 99 166
f 305 271
f 23 27
f 456 440
f 75 74
f 67 70
f 32 112
f 132 199
f 185 62
f 29 223
f 411 288
f 437 426
f 410 409
f 224 53
f 429 422
f 377 412
f 142 20
f 145 25
f 124 51
f 143 101
f 443 442
f 422 419
f 449 256
f 139 216
f 444 443
f 63 77
f 356 330
f 376 308
f 228 144
f 21 80
f 40 93
f 25 230
f 251 393
f 220 60
f 37 204
f 224 30
f 210 132
f 329 461
f 207 206
f 348 331
f 307 293
f 3 327
f 185 75
f 458 462
f 229 230
f 369 390
f 240 239
f 86 181
f 138 228
f 172 141
f 211 212
f 139 193
f 78 97
f 459 463
f 345 441
f 12 268
f 243 21
f 127 218
f 244 245
f 325 319
f 212 33
f 56 194
f 396 379
f 203 213
f 361 421
f 326 320
f 458 439
f 41 187
f 277 284
f 295 332
f 243 142
f 188 206
f 397 200
f 269 14
f 293 408
f 299 302
f 405 320
f 10 56
f 371 327
f 69 105
f 282 249
f 231 24
f 75 185
f 321 326
f 142 95
f 61 21
f 98 168
f 105 64
f 284 444
f 70 106
f 301 384
f 49 132
f 402 436
f 75 41
f 259 387
f 87 15
f 365 368
f 433 423
f 425 419
f 178 133
f 283 335
f 330 267
f 395 396
f 373 265
f 431 435
f 118 124
f 89 97
f 181 180
f 407 406
f 46 135
f 54 224
f 92 107
f 272 303
f 284 277
f 77 63
f 237 52
f 97 78
f 9 194
f 248 247
f 369 357
f 101 48
f 280 279
f 453 350
f 380 366
f 39 73
f 400 344
f 258 260
f 378 176
f 250 256
f 355 458
f 240 242
f 313 312
f 151 170
f 158 29
f 183 202
f 20 95
f 40 73
f 5 52
f 98 243
f 291 329
f 337 296
f 195 212
f 294 334
f 341 266
f 26 111
f 292 410
f 446 468
f 367 324
f 47 54
f 279 440
f 66 67
f 431 425
f 69 72
f 6 52
f 31 225
f 187 213
f 139 173
f 99 100
f 86 17
f 432 425
f 245 190
f 291 306
f 455 265
f 374 340
f 241 76
f 446 445
f 113 156
f 393 439
f 136 139
f 217 213
f 123 169
f 27 232
f 130 65
f 447 266
f 204 130
f 144 228
f 458 275
f 221 219
f 19 84
f 358 453
f 278 344
f 271 305
f 262 256
f 42 73
f 394 3
f 232 233
f 17 16
f 262 341
f 449 347
f 382 257
f 468 446
f 394 268
f 18 17
f 263 422
f 297 335
f 50 49
f 298 300
f 183 84
f 228 235
f 202 183
f 375 254
f 28 30
f 404 317
f 149 176
f 214 193
f 220 236
f 64 105
f 105 106
f 257 383
f 129 234
f 303 270
f 294 301
f 60 220
f 466 413
f 424 267
f 261 389
f 308 321
f 114 227
f 52 135
f 447 256
f 48 101
f 148 188
f 461 456
f 152 338
f 166 93
f 264 256
f 183 182
f 443 258
f 390 252
f 61 76
f 58 187
f 259 442
f 414 465
f 340 250
f 132 221
f 377 434
f 236 49
f 113 244
f 313 269
f 85 182
f 239 240
f 103 50
f 457 282
f 41 75
f 353 341
f 300 335
f 32 26
f 213 187
f 272 273
f 426 331
f 52 4
f 304 305
f 315 314
f 255 449
f 361 430
f 317 15
f 181 91
f 234 246
f 296 337
f 337 338
f 102 206
f 29 222
f 316 315
f 342 453
f 68 70
f 319 326
f 145 24
f 338 339
f 349 348
f 276 364
f 148 178
f 182 91
f 367 402
f 219 238
f 64 72
f 339 11
f 403 404
f 376 307
f 73 40
f 25 229
f 293 309
f 404 405
f 62 147
f 370 263
f 396 401
f 166 204
f 431 395
f 76 167
f 111 8
f 282 6
f 208 206
f 113 234
f 199 237
f 228 35
f 459 462
f 130 143
f 335 283
f 202 19
f 34 26
f 167 61
f 252 285
f 227 112
f 170 215
f 326 319
f 451 350
f 41 186
